<svg width="21" height="21" viewBox="0 0 21 21" fill="none" xmlns="http://www.w3.org/2000/svg">
<path d="M17.0625 4.59375H14.7886L13.6705 2.91703C13.6106 2.82725 13.5295 2.75363 13.4343 2.70269C13.3392 2.65175 13.2329 2.62506 13.125 2.625H7.875C7.76707 2.62506 7.66082 2.65175 7.56567 2.70269C7.47051 2.75363 7.38939 2.82725 7.32949 2.91703L6.21059 4.59375H3.9375C3.41536 4.59375 2.9146 4.80117 2.54538 5.17038C2.17617 5.5396 1.96875 6.04036 1.96875 6.5625V15.75C1.96875 16.2721 2.17617 16.7729 2.54538 17.1421C2.9146 17.5113 3.41536 17.7188 3.9375 17.7188H17.0625C17.5846 17.7188 18.0854 17.5113 18.4546 17.1421C18.8238 16.7729 19.0312 16.2721 19.0312 15.75V6.5625C19.0312 6.04036 18.8238 5.5396 18.4546 5.17038C18.0854 4.80117 17.5846 4.59375 17.0625 4.59375ZM17.7188 15.75C17.7188 15.924 17.6496 16.091 17.5265 16.214C17.4035 16.3371 17.2365 16.4062 17.0625 16.4062H3.9375C3.76345 16.4062 3.59653 16.3371 3.47346 16.214C3.35039 16.091 3.28125 15.924 3.28125 15.75V6.5625C3.28125 6.38845 3.35039 6.22153 3.47346 6.09846C3.59653 5.97539 3.76345 5.90625 3.9375 5.90625H6.5625C6.67057 5.90632 6.77698 5.8797 6.87229 5.82876C6.9676 5.77781 7.04885 5.70412 7.10883 5.61422L8.22609 3.9375H12.7731L13.8912 5.61422C13.9511 5.70412 14.0324 5.77781 14.1277 5.82876C14.223 5.8797 14.3294 5.90632 14.4375 5.90625H17.0625C17.2365 5.90625 17.4035 5.97539 17.5265 6.09846C17.6496 6.22153 17.7188 6.38845 17.7188 6.5625V15.75ZM10.5 7.21875C9.78613 7.21875 9.0883 7.43044 8.49474 7.82704C7.90118 8.22364 7.43856 8.78735 7.16537 9.44688C6.89219 10.1064 6.82071 10.8321 6.95998 11.5323C7.09925 12.2324 7.44301 12.8756 7.94779 13.3803C8.45257 13.8851 9.0957 14.2289 9.79585 14.3681C10.496 14.5074 11.2217 14.4359 11.8812 14.1628C12.5408 13.8896 13.1045 13.4269 13.5011 12.8334C13.8977 12.2398 14.1094 11.542 14.1094 10.8281C14.1083 9.87119 13.7277 8.95376 13.051 8.27711C12.3744 7.60046 11.4569 7.21984 10.5 7.21875ZM10.5 13.125C10.0457 13.125 9.60164 12.9903 9.22392 12.7379C8.84621 12.4855 8.55181 12.1268 8.37796 11.7071C8.20412 11.2874 8.15863 10.8256 8.24726 10.38C8.33588 9.93448 8.55464 9.52521 8.87586 9.20399C9.19709 8.88277 9.60635 8.66401 10.0519 8.57538C10.4975 8.48676 10.9593 8.53224 11.379 8.70609C11.7987 8.87993 12.1574 9.17433 12.4098 9.55205C12.6622 9.92977 12.7969 10.3738 12.7969 10.8281C12.7969 11.4373 12.5549 12.0215 12.1241 12.4523C11.6934 12.883 11.1092 13.125 10.5 13.125Z" fill="#343330"/>
</svg>
