<svg width="14" height="14" viewBox="0 0 14 14" fill="none" xmlns="http://www.w3.org/2000/svg">
<path d="M12.431 4.01242L9.98758 1.56844C9.90633 1.48717 9.80986 1.4227 9.70369 1.37871C9.59752 1.33473 9.48372 1.31209 9.36879 1.31209C9.25387 1.31209 9.14007 1.33473 9.0339 1.37871C8.92773 1.4227 8.83126 1.48717 8.75 1.56844L2.00649 8.3125C1.92488 8.39346 1.86019 8.48983 1.81615 8.59601C1.77212 8.70219 1.74964 8.81607 1.75 8.93102V11.375C1.75 11.6071 1.84219 11.8296 2.00629 11.9937C2.17038 12.1578 2.39294 12.25 2.625 12.25H5.06899C5.18394 12.2504 5.29781 12.2279 5.404 12.1839C5.51018 12.1398 5.60655 12.0751 5.6875 11.9935L12.431 5.25C12.5123 5.16875 12.5768 5.07228 12.6207 4.96611C12.6647 4.85993 12.6874 4.74614 12.6874 4.63121C12.6874 4.51629 12.6647 4.40249 12.6207 4.29632C12.5768 4.19015 12.5123 4.09368 12.431 4.01242ZM5.06899 11.375H2.625V8.93102L7.4375 4.11852L9.88149 6.5625L5.06899 11.375ZM10.5 5.94344L8.05602 3.5L9.36852 2.1875L11.8125 4.63094L10.5 5.94344Z" fill="#343330"/>
</svg>
