<svg width="24" height="24" viewBox="0 0 24 24" fill="none" xmlns="http://www.w3.org/2000/svg">
<path fill-rule="evenodd" clip-rule="evenodd" d="M12.0251 5C10.6543 5 9.52512 6.13802 9.52512 7.56429C9.52512 8.24213 9.78082 8.85618 10.1973 9.31375C10.3032 9.43007 10.3482 9.58943 10.3187 9.74394C10.2893 9.89845 10.1888 10.0301 10.0476 10.0993C9.32388 10.454 8.70885 10.9976 8.26731 11.6659C8.1151 11.8963 7.80492 11.9597 7.57452 11.8075C7.34412 11.6553 7.28074 11.3451 7.43296 11.1147C7.8619 10.4654 8.42487 9.91248 9.08277 9.4952C8.72971 8.93822 8.52512 8.27485 8.52512 7.56429C8.52512 5.60583 10.0822 4 12.0251 4C13.9681 4 15.5251 5.60583 15.5251 7.56429C15.5251 8.27777 15.3188 8.94367 14.9631 9.50206C15.5807 9.91543 16.1065 10.48 16.5163 11.121C16.665 11.3537 16.597 11.6629 16.3643 11.8116C16.1316 11.9603 15.8224 11.8923 15.6737 11.6596C15.2326 10.9696 14.6539 10.4187 14.0025 10.0994C13.8613 10.0302 13.7608 9.89855 13.7314 9.74404C13.7019 9.58952 13.7469 9.43016 13.8528 9.31385C14.2694 8.85627 14.5251 8.24218 14.5251 7.56429C14.5251 6.13802 13.3959 5 12.0251 5ZM6.16317 13.5L7.59174 18.5H16.0831L17.5117 13.5H6.16317ZM5.5003 12.5C5.16811 12.5 4.92828 12.818 5.01954 13.1374L6.73383 19.1374C6.79516 19.352 6.99135 19.5 7.21459 19.5H16.4603C16.6835 19.5 16.8797 19.352 16.9411 19.1374L18.6553 13.1374C18.7466 12.818 18.5068 12.5 18.1746 12.5H5.5003ZM10.8374 14C10.5613 14 10.3374 14.2239 10.3374 14.5C10.3374 14.7761 10.5613 15 10.8374 15H12.8374C13.1136 15 13.3374 14.7761 13.3374 14.5C13.3374 14.2239 13.1136 14 12.8374 14H10.8374Z" fill="#2A2A2A"/>
</svg>
