<svg width="24" height="24" viewBox="0 0 24 24" fill="none" xmlns="http://www.w3.org/2000/svg">
<mask id="path-1-inside-1_15_54" fill="white">
<path fill-rule="evenodd" clip-rule="evenodd" d="M6 6C4.89543 6 4 6.89543 4 8V14.6591C4 15.7637 4.89543 16.6591 6 16.6591H7.09808V18.1277C7.09808 18.5184 7.49889 18.7533 7.8241 18.5532L10.9019 16.6591H18C19.1046 16.6591 20 15.7637 20 14.6591V8C20 6.89543 19.1046 6 18 6H6Z"/>
</mask>
<path d="M7.09808 16.6591H8.09808C8.09808 16.1068 7.65036 15.6591 7.09808 15.6591V16.6591ZM7.8241 18.5532L8.34821 19.4049L8.34821 19.4049L7.8241 18.5532ZM10.9019 16.6591V15.6591C10.7169 15.6591 10.5354 15.7105 10.3778 15.8074L10.9019 16.6591ZM5 8C5 7.44772 5.44772 7 6 7V5C4.34314 5 3 6.34315 3 8H5ZM5 14.6591V8H3V14.6591H5ZM6 15.6591C5.44772 15.6591 5 15.2114 5 14.6591H3C3 16.316 4.34315 17.6591 6 17.6591V15.6591ZM7.09808 15.6591H6V17.6591H7.09808V15.6591ZM8.09808 18.1277V16.6591H6.09808V18.1277H8.09808ZM7.29999 17.7016C7.46609 17.5993 7.68104 17.6033 7.84478 17.6993C8.00548 17.7935 8.09808 17.9628 8.09808 18.1277H6.09808C6.09808 19.2442 7.30912 20.0443 8.34821 19.4049L7.29999 17.7016ZM10.3778 15.8074L7.29999 17.7016L8.34821 19.4049L11.426 17.5108L10.3778 15.8074ZM18 15.6591H10.9019V17.6591H18V15.6591ZM19 14.6591C19 15.2114 18.5523 15.6591 18 15.6591V17.6591C19.6569 17.6591 21 16.316 21 14.6591H19ZM19 8V14.6591H21V8H19ZM18 7C18.5523 7 19 7.44772 19 8H21C21 6.34315 19.6569 5 18 5V7ZM6 7H18V5H6V7Z" fill="#2A2A2A" mask="url(#path-1-inside-1_15_54)"/>
<path d="M8 9.5H16" stroke="#2A2A2A" stroke-linecap="round"/>
<path d="M8 11.5H13.5" stroke="#2A2A2A" stroke-linecap="round"/>
<path d="M14.8976 11.5H15.9998" stroke="#2A2A2A" stroke-linecap="round"/>
</svg>
