<svg width="24" height="24" viewBox="0 0 24 24" fill="none" xmlns="http://www.w3.org/2000/svg">
<path fill-rule="evenodd" clip-rule="evenodd" d="M15 7C16.2095 7 17.2184 7.85888 17.45 9H20C20.2761 9 20.5 9.22386 20.5 9.5C20.5 9.77614 20.2761 10 20 10H17.45C17.2184 11.1411 16.2095 12 15 12C13.7897 12 12.7802 11.1399 12.5495 9.99758C12.5332 9.99918 12.5167 10 12.5 10H5C4.72386 10 4.5 9.77614 4.5 9.5C4.5 9.22386 4.72386 9 5 9H12.5C12.5167 9 12.5332 9.00082 12.5495 9.00242C12.7802 7.86009 13.7897 7 15 7ZM16.5 9.5C16.5 10.3284 15.8284 11 15 11C14.1716 11 13.5 10.3284 13.5 9.5C13.5 8.67157 14.1716 8 15 8C15.8284 8 16.5 8.67157 16.5 9.5Z" fill="#2A2A2A"/>
<path fill-rule="evenodd" clip-rule="evenodd" d="M7.55001 15C7.78164 16.1411 8.79052 17 10 17C11.2103 17 12.2198 16.1399 12.4505 14.9976C12.4668 14.9992 12.4833 15 12.5 15H20C20.2761 15 20.5 14.7761 20.5 14.5C20.5 14.2239 20.2761 14 20 14H12.5C12.4833 14 12.4668 14.0008 12.4505 14.0024C12.2198 12.8601 11.2103 12 10 12C8.79052 12 7.78164 12.8589 7.55001 14H5C4.72386 14 4.5 14.2239 4.5 14.5C4.5 14.7761 4.72386 15 5 15H7.55001ZM8.5 14.5C8.5 15.3284 9.17157 16 10 16C10.8284 16 11.5 15.3284 11.5 14.5C11.5 13.6716 10.8284 13 10 13C9.17157 13 8.5 13.6716 8.5 14.5Z" fill="#2A2A2A"/>
</svg>
