<svg width="24" height="24" viewBox="0 0 24 24" fill="none" xmlns="http://www.w3.org/2000/svg">
<path d="M17.2466 13.4997C17.5227 13.4997 17.7466 13.2759 17.7466 12.9997C17.7466 12.7236 17.5227 12.4997 17.2466 12.4997C16.9704 12.4997 16.7466 12.7236 16.7466 12.9997C16.7466 13.2759 16.9704 13.4997 17.2466 13.4997Z" fill="#2A2A2A"/>
<path d="M10.6036 14.8533C10.7988 14.658 10.7988 14.3414 10.6036 14.1462C10.4083 13.9509 10.0917 13.9509 9.89645 14.1462L8.25 15.7926L7.60355 15.1462C7.40829 14.9509 7.09171 14.9509 6.89645 15.1462C6.70118 15.3414 6.70118 15.658 6.89645 15.8533L7.54289 16.4997C7.93342 16.8903 8.56658 16.8903 8.95711 16.4997L10.6036 14.8533Z" fill="#2A2A2A"/>
<path fill-rule="evenodd" clip-rule="evenodd" d="M15.6475 5.16686L9.02867 8.10537C7.99962 8.41495 7.25 9.3698 7.25 10.4997V12.3366C6.06753 12.8983 5.25 14.1035 5.25 15.4997C5.25 17.4327 6.817 18.9997 8.75 18.9997C9.70365 18.9997 10.5682 18.6183 11.1995 17.9997H16.75C18.1307 17.9997 19.25 16.8804 19.25 15.4997V10.4997C19.25 9.47696 18.6358 8.59764 17.7562 8.21046V6.53782C17.7562 5.45259 16.6394 4.7265 15.6475 5.16686ZM16.7562 6.53782C16.7562 6.17608 16.3839 5.93405 16.0533 6.08083L11.7311 7.99974H16.75L16.7562 7.99974V6.53782ZM11.9132 16.9997C12.1292 16.5451 12.25 16.0365 12.25 15.4997C12.25 13.5667 10.683 11.9997 8.75 11.9997C8.58024 11.9997 8.4133 12.0118 8.25 12.0352V10.4997C8.25 9.67131 8.92157 8.99974 9.75 8.99974H16.75C17.5784 8.99974 18.25 9.67131 18.25 10.4997V15.4997C18.25 16.3282 17.5784 16.9997 16.75 16.9997H11.9132ZM8.75 17.9997C10.1307 17.9997 11.25 16.8804 11.25 15.4997C11.25 14.119 10.1307 12.9997 8.75 12.9997C7.36929 12.9997 6.25 14.119 6.25 15.4997C6.25 16.8804 7.36929 17.9997 8.75 17.9997Z" fill="#2A2A2A"/>
</svg>
