<svg width="24" height="24" viewBox="0 0 24 24" fill="none" xmlns="http://www.w3.org/2000/svg">
<path d="M11.9688 8.02007V17.0118L6 15.6042V8.02007C6 6.20317 7.60981 4.80788 9.40828 5.06595C10.8777 5.27681 11.9688 6.5356 11.9688 8.02007Z" stroke="#2A2A2A"/>
<path d="M11.9819 8.03664V16.9977L18 15.6026V8.03407C18 6.2109 16.3755 4.80777 14.5665 5.06553C13.0867 5.27639 11.9819 6.54466 11.9819 8.03664Z" stroke="#2A2A2A"/>
<path fill-rule="evenodd" clip-rule="evenodd" d="M17.3301 6.69825L19 6.28077V16.2192L12 17.9692L5 16.2192V6.28077L6.64941 6.69312V5.66235L4.62127 5.15531C4.30569 5.07642 4 5.3151 4 5.64038V16.6096C4 16.839 4.15615 17.039 4.37873 17.0947L11.8787 18.9697C11.9584 18.9896 12.0416 18.9896 12.1213 18.9697L19.6213 17.0947C19.8439 17.039 20 16.839 20 16.6096V5.64038C20 5.3151 19.6943 5.07642 19.3787 5.15531L17.3301 5.66748V6.69825ZM12.4688 7.91358V6.88281L12.1213 6.96968C12.0416 6.98958 11.9584 6.98958 11.8787 6.96968L11.4819 6.87048V7.90125L11.6362 7.93982C11.8751 7.99954 12.1249 7.99954 12.3638 7.93982L12.4688 7.91358Z" fill="#2A2A2A"/>
<path d="M17.9911 15.1057C17.818 14.5412 17.4352 14.0312 16.888 13.6633C16.3401 13.295 15.6631 13.0942 14.963 13.0997C14.2628 13.1053 13.5904 13.3169 13.0505 13.6934C12.5114 14.0694 12.1393 14.5849 11.9778 15.1516" stroke="#2A2A2A"/>
<path d="M12.0107 14.8284C11.8715 14.2466 11.5189 13.7014 10.9933 13.2859C10.4673 12.8701 9.80364 12.6128 9.10668 12.5601C8.40975 12.5074 7.73007 12.6628 7.17334 12.9923C6.61762 13.3211 6.21855 13.8023 6.02446 14.3529" stroke="#2A2A2A"/>
</svg>
