<svg width="24" height="24" viewBox="0 0 24 24" fill="none" xmlns="http://www.w3.org/2000/svg">
<path d="M5.89645 7.59112L9.07843 4.40914C9.27369 4.21388 9.59027 4.21388 9.78553 4.40914C9.9808 4.6044 9.9808 4.92099 9.78553 5.11625L7.45711 7.44468H15.75C17.1307 7.44468 18.25 8.56396 18.25 9.94468V14.9447C18.25 16.3254 17.1307 17.4447 15.75 17.4447H12.25C11.9739 17.4447 11.75 17.2208 11.75 16.9447C11.75 16.6685 11.9739 16.4447 12.25 16.4447H15.75C16.5784 16.4447 17.25 15.7731 17.25 14.9447V9.94468C17.25 9.11625 16.5784 8.44468 15.75 8.44468H7.45711L9.78553 10.7731C9.9808 10.9684 9.9808 11.2849 9.78553 11.4802C9.59027 11.6755 9.27369 11.6755 9.07843 11.4802L5.89645 8.29823C5.70118 8.10297 5.70118 7.78638 5.89645 7.59112Z" fill="#2A2A2A"/>
</svg>
