<svg width="24" height="24" viewBox="0 0 24 24" fill="none" xmlns="http://www.w3.org/2000/svg">
<path d="M12.5 8.5C12.5 8.77614 12.2761 9 12 9C11.7238 9 11.5 8.77614 11.5 8.5C11.5 8.22386 11.7238 8 12 8C12.2761 8 12.5 8.22386 12.5 8.5Z" fill="#2A2A2A"/>
<path fill-rule="evenodd" clip-rule="evenodd" d="M12.747 12.0022C13.4837 10.9674 14.5 9.38033 14.5 8.5C14.5 7.11929 13.3807 6 12 6C10.6193 6 9.49998 7.11929 9.49998 8.5C9.49998 9.38033 10.5163 10.9674 11.2529 12.0022C11.6241 12.5236 12.3758 12.5236 12.747 12.0022ZM13.3918 8.92623C13.481 8.68482 13.5 8.54884 13.5 8.5C13.5 7.67157 12.8284 7 12 7C11.1716 7 10.5 7.67157 10.5 8.5C10.5 8.54884 10.5189 8.68482 10.6082 8.92623C10.6927 9.15478 10.8192 9.42231 10.9786 9.71522C11.2774 10.2644 11.6586 10.8425 12 11.3268C12.3414 10.8425 12.7225 10.2644 13.0214 9.71522C13.1808 9.42231 13.3072 9.15478 13.3918 8.92623Z" fill="#2A2A2A"/>
<path d="M9.73728 12.6438C10.0111 12.6081 10.2042 12.3572 10.1685 12.0834C10.1328 11.8095 9.88192 11.6165 9.60809 11.6522C7.817 11.8855 6.28024 12.3733 5.26668 13.0301C4.247 13.691 3.82873 14.4759 4.06369 15.2454C4.18542 15.6441 4.47721 16.0168 4.8841 16.3465C5.29551 16.6798 5.85279 16.9927 6.55984 17.2653C7.93601 17.796 9.71715 18.1087 11.5917 18.1485C13.4662 18.1883 15.3147 17.9528 16.8138 17.4832C18.313 17.0136 19.3672 16.3397 19.7922 15.5796C20.0049 15.1992 20.053 14.8097 19.9425 14.4284C19.8319 14.0469 19.5624 13.6733 19.1386 13.3249C18.2914 12.6285 16.8822 12.0781 15.1577 11.7701C14.8858 11.7215 14.6261 11.9025 14.5776 12.1744C14.529 12.4462 14.71 12.706 14.9818 12.7545C16.6285 13.0486 17.8453 13.5563 18.5036 14.0974C18.8245 14.3612 18.9441 14.5759 18.982 14.7068C19.0126 14.8121 19.0115 14.9268 18.9194 15.0916C18.6871 15.5071 17.9474 16.0802 16.5149 16.529C15.1371 16.9606 13.3993 17.1867 11.6129 17.1487C9.82428 17.1107 8.16286 16.8117 6.91965 16.3323C6.28268 16.0867 5.82379 15.8208 5.51365 15.5695C5.199 15.3146 5.06387 15.0967 5.0201 14.9533C4.97735 14.8134 4.95106 14.4263 5.81054 13.8693C6.65254 13.3236 8.02709 12.8666 9.73728 12.6438Z" fill="#2A2A2A"/>
</svg>
