<svg width="24" height="24" viewBox="0 0 24 24" fill="none" xmlns="http://www.w3.org/2000/svg">
<path fill-rule="evenodd" clip-rule="evenodd" d="M15.5001 12.5003C15.5001 14.1572 14.1569 15.5003 12.5001 15.5003C10.8432 15.5003 9.50005 14.1572 9.50005 12.5003C9.50005 10.8434 10.8432 9.5003 12.5001 9.5003C14.1569 9.5003 15.5001 10.8434 15.5001 12.5003ZM14.5001 12.5003C14.5001 13.6049 13.6046 14.5003 12.5001 14.5003C11.3955 14.5003 10.5001 13.6049 10.5001 12.5003C10.5001 11.3957 11.3955 10.5003 12.5001 10.5003C13.6046 10.5003 14.5001 11.3957 14.5001 12.5003Z" fill="#2A2A2A"/>
<path fill-rule="evenodd" clip-rule="evenodd" d="M5.2774 10.4163L5.62181 10.1867L7.35405 19.281C7.48881 19.9884 8.10736 20.5003 8.82756 20.5003H16.1726C16.8927 20.5003 17.5113 19.9884 17.6461 19.281L19.3783 10.1867L19.7227 10.4163C19.9525 10.5695 20.2629 10.5074 20.4161 10.2776C20.5693 10.0479 20.5072 9.73745 20.2774 9.58427L13.3321 4.95407C12.8282 4.61817 12.1718 4.61817 11.668 4.95408L4.7227 9.58427C4.49294 9.73745 4.43085 10.0479 4.58403 10.2776C4.73721 10.5074 5.04764 10.5695 5.2774 10.4163ZM12.7774 5.78612C12.6094 5.67416 12.3906 5.67416 12.2227 5.78612L6.52509 9.58453L8.33639 19.0939C8.38131 19.3297 8.58749 19.5003 8.82756 19.5003H16.1726C16.4126 19.5003 16.6188 19.3297 16.6637 19.0939L18.475 9.58454L12.7774 5.78612Z" fill="#2A2A2A"/>
</svg>
