<svg width="12" height="14" viewBox="0 0 12 14" fill="none" xmlns="http://www.w3.org/2000/svg">
<path fill-rule="evenodd" clip-rule="evenodd" d="M9 6C9 7.65685 7.65685 9 6 9C4.34315 9 3 7.65685 3 6C3 4.34315 4.34315 3 6 3C7.65685 3 9 4.34315 9 6ZM8 6C8 7.10457 7.10457 8 6 8C4.89543 8 4 7.10457 4 6C4 4.89543 4.89543 4 6 4C7.10457 4 8 4.89543 8 6Z" fill="#2A2A2A"/>
<path fill-rule="evenodd" clip-rule="evenodd" d="M12 6C12 9.25871 8.01781 12.5174 6.54183 13.6133C6.2177 13.854 5.7823 13.854 5.45817 13.6133C3.98219 12.5174 0 9.25871 0 6C0 1.92545 2.68629 0 6 0C9.31371 0 12 1.92545 12 6ZM11 6C11 7.25302 10.2116 8.64654 9.06933 9.96207C7.98478 11.2111 6.72185 12.2302 6 12.77C5.27816 12.2302 4.01522 11.2111 2.93067 9.96207C1.78837 8.64654 1 7.25302 1 6C1 4.19467 1.58699 2.98119 2.43137 2.21076C3.29104 1.42639 4.52935 1 6 1C7.47065 1 8.70896 1.42639 9.56863 2.21076C10.413 2.98119 11 4.19467 11 6Z" fill="#2A2A2A"/>
</svg>
