<svg width="24" height="24" viewBox="0 0 24 24" fill="none" xmlns="http://www.w3.org/2000/svg">
<mask id="path-1-inside-1_24_68" fill="white">
<path fill-rule="evenodd" clip-rule="evenodd" d="M17.2094 4.09401L11 8.52929H6C5.72386 8.52929 5.5 8.75314 5.5 9.02929V14.0293C5.5 14.3054 5.72386 14.5293 6 14.5293L11 14.5293L17.2094 18.9646C17.5403 19.2009 18 18.9644 18 18.5577V4.50088C18 4.0942 17.5403 3.85763 17.2094 4.09401Z"/>
</mask>
<path d="M11 8.52929V9.52929C11.2084 9.52929 11.4116 9.46416 11.5812 9.34302L11 8.52929ZM17.2094 4.09401L17.7906 4.90775L17.7906 4.90775L17.2094 4.09401ZM6 14.5293L6 15.5293L6 15.5293L6 14.5293ZM11 14.5293L11.5812 13.7156C11.4116 13.5944 11.2084 13.5293 11 13.5293L11 14.5293ZM17.2094 18.9646L17.7906 18.1508L17.7906 18.1508L17.2094 18.9646ZM11.5812 9.34302L17.7906 4.90775L16.6281 3.28028L10.4188 7.71555L11.5812 9.34302ZM6 9.52929H11V7.52929H6V9.52929ZM6.5 9.02929C6.5 9.30543 6.27614 9.52929 6 9.52929V7.52929C5.17157 7.52929 4.5 8.20086 4.5 9.02929H6.5ZM6.5 14.0293V9.02929H4.5V14.0293H6.5ZM6 13.5293C6.27614 13.5293 6.5 13.7531 6.5 14.0293H4.5C4.5 14.8577 5.17157 15.5293 6 15.5293V13.5293ZM11 13.5293L6 13.5293L6 15.5293L11 15.5293L11 13.5293ZM17.7906 18.1508L11.5812 13.7156L10.4188 15.343L16.6281 19.7783L17.7906 18.1508ZM17 18.5577C17 18.151 17.4597 17.9144 17.7906 18.1508L16.6281 19.7783C17.6209 20.4874 19 19.7778 19 18.5577H17ZM17 4.50088V18.5577H19V4.50088H17ZM17.7906 4.90775C17.4597 5.14413 17 4.90757 17 4.50088H19C19 3.28082 17.6209 2.57114 16.6281 3.28028L17.7906 4.90775Z" fill="#2A2A2A" mask="url(#path-1-inside-1_24_68)"/>
<path d="M5.5 13.0293C5.28882 13.0293 5.04527 12.9181 4.83934 12.6435C4.63134 12.3662 4.5 11.9664 4.5 11.5293C4.5 11.0922 4.63134 10.6924 4.83934 10.4151C5.04527 10.1405 5.28882 10.0293 5.5 10.0293" stroke="#2A2A2A"/>
<path d="M18 13.0293C18.3978 13.0293 18.7794 12.8713 19.0607 12.59C19.342 12.3087 19.5 11.9271 19.5 11.5293C19.5 11.1315 19.342 10.7499 19.0607 10.4686C18.7794 10.1873 18.3978 10.0293 18 10.0293" stroke="#2A2A2A"/>
<path d="M11 9.0293V14.0293" stroke="#2A2A2A" stroke-linecap="round"/>
<path d="M7.5 14.0293H9.5V19.0293H7.5L7.5 14.0293Z" stroke="#2A2A2A"/>
</svg>
