<svg width="24" height="24" viewBox="0 0 24 24" fill="none" xmlns="http://www.w3.org/2000/svg">
<path d="M17.5 9C17.5 10.6989 16.9871 11.9703 16.1785 12.8554C16.1614 12.8741 16.1442 12.8929 16.127 12.9118C15.5451 13.5485 14.9013 14.253 14.4029 15.0219C13.8861 15.8191 13.5 16.7226 13.5 17.7454V19.2C13.5 19.918 12.918 20.5 12.2 20.5H11.8C11.082 20.5 10.5 19.918 10.5 19.2V17.7454C10.5 16.7226 10.1139 15.8191 9.59713 15.0219C9.09867 14.253 8.45488 13.5485 7.87303 12.9118C7.8558 12.8929 7.83863 12.8741 7.82152 12.8554C7.01295 11.9703 6.5 10.6989 6.5 9C6.5 5.96243 8.96243 3.5 12 3.5C15.0376 3.5 17.5 5.96243 17.5 9Z" stroke="#2A2A2A" stroke-linejoin="round"/>
<path d="M11 17H12.895" stroke="#2A2A2A" stroke-linecap="round"/>
<path d="M11 19H12.895" stroke="#2A2A2A" stroke-linecap="round"/>
<mask id="path-4-inside-1_23_79" fill="white">
<rect x="10.5" y="14.5" width="3" height="3" rx="0.5"/>
</mask>
<rect x="10.5" y="14.5" width="3" height="3" rx="0.5" stroke="#2A2A2A" stroke-width="2" mask="url(#path-4-inside-1_23_79)"/>
</svg>
