<svg width="24" height="24" viewBox="0 0 24 24" fill="none" xmlns="http://www.w3.org/2000/svg">
<path fill-rule="evenodd" clip-rule="evenodd" d="M13.5 12C13.5 13.6569 12.1569 15 10.5 15C8.84315 15 7.5 13.6569 7.5 12C7.5 10.3431 8.84315 9 10.5 9C12.1569 9 13.5 10.3431 13.5 12ZM12.5 12C12.5 13.1046 11.6046 14 10.5 14C9.39543 14 8.5 13.1046 8.5 12C8.5 10.8954 9.39543 10 10.5 10C11.6046 10 12.5 10.8954 12.5 12Z" fill="#2A2A2A"/>
<path fill-rule="evenodd" clip-rule="evenodd" d="M17 17V15L19.2764 16.1382C19.6088 16.3044 20 16.0627 20 15.691V8.30902C20 7.93733 19.6088 7.69558 19.2764 7.8618L17 9V7C17 5.89543 16.1046 5 15 5H6C4.89543 5 4 5.89543 4 7V17C4 18.1046 4.89543 19 6 19H15C16.1046 19 17 18.1046 17 17ZM15 6H6C5.44772 6 5 6.44772 5 7V17C5 17.5523 5.44772 18 6 18H15C15.5523 18 16 17.5523 16 17V7C16 6.44772 15.5523 6 15 6ZM19 14.882L17 13.882V10.118L19 9.11803V14.882Z" fill="#2A2A2A"/>
</svg>
