<svg width="24" height="24" viewBox="0 0 24 24" fill="none" xmlns="http://www.w3.org/2000/svg">
<path d="M5.98959 5.98959C7.17834 4.80085 8.69289 3.9913 10.3417 3.66333C11.9906 3.33535 13.6996 3.50368 15.2528 4.14702C16.806 4.79037 18.1335 5.87983 19.0675 7.27765C20.0015 8.67547 20.5 10.3189 20.5 12C20.5 13.6811 20.0015 15.3245 19.0675 16.7223C18.1335 18.1202 16.806 19.2096 15.2528 19.853C13.6996 20.4963 11.9906 20.6646 10.3417 20.3367C8.6929 20.0087 7.17834 19.1992 5.98959 18.0104" stroke="#2A2A2A" stroke-linecap="round"/>
<path d="M4 9.5H11" stroke="#2A2A2A" stroke-linecap="round"/>
<path d="M3 14.5H9.5" stroke="#2A2A2A" stroke-linecap="round"/>
<path d="M5.5 12H12.5" stroke="#2A2A2A" stroke-linecap="round"/>
</svg>
