<svg width="12" height="12" viewBox="0 0 12 12" fill="none" xmlns="http://www.w3.org/2000/svg">
<path d="M6 0C4.81331 0 3.65328 0.351894 2.66658 1.01118C1.67989 1.67047 0.910851 2.60754 0.456725 3.7039C0.00259972 4.80026 -0.11622 6.00665 0.115291 7.17054C0.346802 8.33443 0.918247 9.40352 1.75736 10.2426C2.59648 11.0818 3.66557 11.6532 4.82946 11.8847C5.99335 12.1162 7.19975 11.9974 8.2961 11.5433C9.39246 11.0891 10.3295 10.3201 10.9888 9.33342C11.6481 8.34672 12 7.18669 12 6C11.9983 4.40922 11.3656 2.88407 10.2408 1.75921C9.11593 0.63436 7.59078 0.0016799 6 0ZM2.88923 10.0096C3.22312 9.48743 3.68308 9.0577 4.22673 8.76003C4.77037 8.46236 5.3802 8.30634 6 8.30634C6.6198 8.30634 7.22963 8.46236 7.77328 8.76003C8.31692 9.0577 8.77688 9.48743 9.11077 10.0096C8.22135 10.7013 7.12675 11.0769 6 11.0769C4.87326 11.0769 3.77865 10.7013 2.88923 10.0096ZM4.15385 5.53846C4.15385 5.17333 4.26212 4.81639 4.46498 4.51279C4.66784 4.20919 4.95617 3.97257 5.29351 3.83284C5.63085 3.69311 6.00205 3.65655 6.36017 3.72778C6.71829 3.79901 7.04724 3.97484 7.30543 4.23303C7.56362 4.49122 7.73945 4.82017 7.81068 5.17829C7.88192 5.53641 7.84536 5.90761 7.70563 6.24495C7.56589 6.58229 7.32927 6.87062 7.02567 7.07348C6.72207 7.27634 6.36514 7.38461 6 7.38461C5.51037 7.38461 5.04079 7.19011 4.69457 6.84389C4.34835 6.49767 4.15385 6.02809 4.15385 5.53846ZM9.79385 9.36981C9.2791 8.62389 8.5553 8.04682 7.71346 7.71115C8.16566 7.35499 8.49564 6.86676 8.6575 6.31436C8.81936 5.76197 8.80506 5.17286 8.61658 4.62897C8.42811 4.08508 8.07484 3.61343 7.60589 3.27963C7.13694 2.94582 6.57562 2.76645 6 2.76645C5.42438 2.76645 4.86306 2.94582 4.39411 3.27963C3.92516 3.61343 3.57189 4.08508 3.38342 4.62897C3.19495 5.17286 3.18064 5.76197 3.3425 6.31436C3.50436 6.86676 3.83434 7.35499 4.28654 7.71115C3.4447 8.04682 2.7209 8.62389 2.20616 9.36981C1.55571 8.63836 1.13058 7.73449 0.981952 6.76702C0.833321 5.79955 0.967529 4.80974 1.36842 3.91679C1.7693 3.02383 2.41977 2.26579 3.2415 1.73396C4.06323 1.20213 5.02118 0.91918 6 0.91918C6.97882 0.91918 7.93677 1.20213 8.7585 1.73396C9.58023 2.26579 10.2307 3.02383 10.6316 3.91679C11.0325 4.80974 11.1667 5.79955 11.0181 6.76702C10.8694 7.73449 10.4443 8.63836 9.79385 9.36981Z" fill="#343330"/>
</svg>
