<svg width="14" height="14" viewBox="0 0 14 14" fill="none" xmlns="http://www.w3.org/2000/svg">
<path d="M12.5594 11.9405L9.82121 9.20282C10.6149 8.25 11.0106 7.02789 10.9261 5.79072C10.8417 4.55355 10.2835 3.39656 9.36771 2.56046C8.45193 1.72435 7.24906 1.27349 6.00933 1.30166C4.7696 1.32984 3.58845 1.83488 2.7116 2.71173C1.83476 3.58858 1.32971 4.76972 1.30154 6.00945C1.27336 7.24918 1.72423 8.45205 2.56033 9.36783C3.39644 10.2836 4.55342 10.8418 5.79059 10.9263C7.02777 11.0107 8.24988 10.615 9.20269 9.82133L11.9403 12.5595C11.981 12.6002 12.0293 12.6324 12.0824 12.6544C12.1355 12.6764 12.1924 12.6877 12.2499 12.6877C12.3074 12.6877 12.3643 12.6764 12.4174 12.6544C12.4705 12.6324 12.5188 12.6002 12.5594 12.5595C12.6001 12.5189 12.6323 12.4706 12.6543 12.4175C12.6763 12.3644 12.6876 12.3075 12.6876 12.25C12.6876 12.1925 12.6763 12.1356 12.6543 12.0825C12.6323 12.0294 12.6001 11.9811 12.5594 11.9405ZM2.18738 6.125C2.18738 5.34624 2.41831 4.58496 2.85097 3.93744C3.28363 3.28993 3.89858 2.78525 4.61806 2.48723C5.33755 2.18921 6.12925 2.11123 6.89305 2.26316C7.65685 2.41509 8.35844 2.7901 8.90911 3.34077C9.45978 3.89144 9.83479 4.59303 9.98672 5.35683C10.1387 6.12063 10.0607 6.91233 9.76266 7.63182C9.46464 8.3513 8.95996 8.96626 8.31244 9.39891C7.66492 9.83157 6.90364 10.0625 6.12488 10.0625C5.08095 10.0613 4.0801 9.64613 3.34193 8.90796C2.60375 8.16978 2.18854 7.16894 2.18738 6.125Z" fill="#C1C1C1"/>
</svg>
