<svg width="24" height="24" viewBox="0 0 24 24" fill="none" xmlns="http://www.w3.org/2000/svg">
<path fill-rule="evenodd" clip-rule="evenodd" d="M6 11C6 7.68629 8.68629 5 12 5C15.3137 5 18 7.68629 18 11V15.5C18 15.7761 17.7761 16 17.5 16H16.5537C16.0014 16 15.5537 15.5523 15.5537 15V12C15.5537 11.4477 16.0014 11 16.5537 11H17C17 8.23858 14.7614 6 12 6C9.23858 6 7 8.23858 7 11H7.44629C7.99857 11 8.44629 11.4477 8.44629 12V15C8.44629 15.5523 7.99857 16 7.44629 16H7V16.5C7 17.3284 7.67157 18 8.5 18H9C9 17.4477 9.44772 17 10 17H11C11.5523 17 12 17.4477 12 18V18.5C12 18.7761 11.7761 19 11.5 19H8.5C7.11929 19 6 17.8807 6 16.5V11ZM17 12H16.5537V15H17V12ZM7 15V12H7.44629V15H7Z" fill="#2A2A2A"/>
</svg>
