<svg width="24" height="24" viewBox="0 0 24 24" fill="none" xmlns="http://www.w3.org/2000/svg">
<path fill-rule="evenodd" clip-rule="evenodd" d="M16.5 11C17.6046 11 18.5 10.1046 18.5 9C18.5 7.89543 17.6046 7 16.5 7C15.3954 7 14.5 7.89543 14.5 9C14.5 10.1046 15.3954 11 16.5 11ZM16.5 10C17.0523 10 17.5 9.55228 17.5 9C17.5 8.44772 17.0523 8 16.5 8C15.9477 8 15.5 8.44772 15.5 9C15.5 9.55228 15.9477 10 16.5 10Z" fill="#2A2A2A"/>
<path d="M13.8975 12.291L13.277 12.4461L11.881 14.0885C11.7021 14.2989 11.3866 14.3245 11.1762 14.1457C10.9658 13.9668 10.9402 13.6513 11.119 13.4409L12.5774 11.7251C12.6721 11.6137 12.7992 11.5348 12.941 11.4994L14.634 11.0761C15.1612 10.9443 15.578 11.5253 15.2843 11.9825L14.0247 13.9431L15.4927 14.7742C15.8062 14.9517 16 15.2842 16 15.6444V18C16 18.2761 15.7761 18.5 15.5 18.5C15.2239 18.5 15 18.2761 15 18V15.6444L13.1639 14.6049C12.864 14.4351 12.7684 14.0483 12.9547 13.7584L13.8975 12.291Z" fill="#2A2A2A"/>
<path d="M12.8969 15.0944C13.1209 15.2559 13.1716 15.5684 13.0101 15.7924L11.4056 18.018C11.2441 18.242 10.9316 18.2927 10.7076 18.1312C10.4836 17.9697 10.4329 17.6572 10.5944 17.4332L12.1989 15.2076C12.3604 14.9836 12.6729 14.9329 12.8969 15.0944Z" fill="#2A2A2A"/>
<path d="M16.6373 11.6897C16.3948 11.5577 16.0911 11.6474 15.9592 11.89C15.8273 12.1326 15.917 12.4362 16.1595 12.5681L17.7611 13.4392C18.0037 13.5712 18.3073 13.4815 18.4392 13.2389C18.5712 12.9963 18.4815 12.6927 18.2389 12.5608L16.6373 11.6897Z" fill="#2A2A2A"/>
<path d="M8.5 9.5C8.22386 9.5 8 9.72386 8 10C8 10.2761 8.22386 10.5 8.5 10.5H11.29C11.5662 10.5 11.79 10.2761 11.79 10C11.79 9.72386 11.5662 9.5 11.29 9.5H8.5Z" fill="#2A2A2A"/>
<path d="M5.5 12C5.5 11.7239 5.72386 11.5 6 11.5H8.79004C9.06618 11.5 9.29004 11.7239 9.29004 12C9.29004 12.2761 9.06618 12.5 8.79004 12.5H6C5.72386 12.5 5.5 12.2761 5.5 12Z" fill="#2A2A2A"/>
<path d="M7 13.5C6.72386 13.5 6.5 13.7239 6.5 14C6.5 14.2761 6.72386 14.5 7 14.5H9.79004C10.0662 14.5 10.29 14.2761 10.29 14C10.29 13.7239 10.0662 13.5 9.79004 13.5H7Z" fill="#2A2A2A"/>
</svg>
