<svg width="24" height="24" viewBox="0 0 24 24" fill="none" xmlns="http://www.w3.org/2000/svg">
<path d="M12.5 7C12.7761 7 13 6.77614 13 6.5C13 6.22386 12.7761 6 12.5 6C12.2239 6 12 6.22386 12 6.5C12 6.77614 12.2239 7 12.5 7Z" fill="#2A2A2A"/>
<path fill-rule="evenodd" clip-rule="evenodd" d="M15 6.5C15 7.38033 13.9837 8.96742 13.2471 10.0022C12.8758 10.5236 12.1242 10.5236 11.7529 10.0022C11.0163 8.96742 10 7.38033 10 6.5C10 5.11929 11.1193 4 12.5 4C13.8807 4 15 5.11929 15 6.5ZM14 6.5C14 6.54884 13.9811 6.68482 13.8918 6.92623C13.8073 7.15478 13.6808 7.42231 13.5214 7.71522C13.2226 8.2644 12.8414 8.84245 12.5 9.32679C12.1586 8.84245 11.7774 8.2644 11.4786 7.71522C11.3192 7.42231 11.1927 7.15478 11.1082 6.92623C11.0189 6.68482 11 6.54884 11 6.5C11 5.67157 11.6716 5 12.5 5C13.3284 5 14 5.67157 14 6.5Z" fill="#2A2A2A"/>
<path d="M15 10C15 9.72386 15.2239 9.5 15.5 9.5H16.05C17.5796 9.5 19 10.5292 19 12C19 13.4708 17.5796 14.5 16.05 14.5H8.45C7.2734 14.5 6.5 15.2616 6.5 16C6.5 16.7384 7.2734 17.5 8.45 17.5H13C13.2761 17.5 13.5 17.7239 13.5 18C13.5 18.2761 13.2761 18.5 13 18.5H8.45C6.9204 18.5 5.5 17.4708 5.5 16C5.5 14.5292 6.9204 13.5 8.45 13.5H16.05C17.2266 13.5 18 12.7384 18 12C18 11.2616 17.2266 10.5 16.05 10.5H15.5C15.2239 10.5 15 10.2761 15 10Z" fill="#2A2A2A"/>
</svg>
